<svg xmlns="http://www.w3.org/2000/svg"
    xmlns:xlink="http://www.w3.org/1999/xlink" zoomAndPan="magnify" viewBox="0 0 112.5 140.62499624999998" preserveAspectRatio="xMidYMid meet" version="1.0" x="0px" y="0px">
    <defs>
        <clipPath id="a">
            <path d="M 28.144531 16.875 L 84.394531 16.875 L 84.394531 95.625 L 28.144531 95.625 Z M 28.144531 16.875 " clip-rule="nonzero"/>
        </clipPath>
    </defs>
    <g clip-path="url(#a)">
        <path fill="#000000" d="M 73.144531 47.820312 L 39.394531 47.820312 C 39.023438 47.820312 38.664062 47.75 38.320312 47.605469 C 37.976562 47.464844 37.671875 47.261719 37.40625 46.996094 C 37.144531 46.734375 36.941406 46.429688 36.796875 46.085938 C 36.65625 45.742188 36.582031 45.382812 36.582031 45.007812 C 36.582031 44.636719 36.65625 44.277344 36.796875 43.933594 C 36.941406 43.589844 37.144531 43.285156 37.40625 43.023438 C 37.671875 42.757812 37.976562 42.554688 38.320312 42.414062 C 38.664062 42.269531 39.023438 42.199219 39.394531 42.199219 L 73.144531 42.199219 C 73.519531 42.199219 73.878906 42.269531 74.222656 42.414062 C 74.566406 42.554688 74.871094 42.757812 75.136719 43.023438 C 75.398438 43.285156 75.601562 43.589844 75.746094 43.933594 C 75.886719 44.277344 75.957031 44.636719 75.957031 45.007812 C 75.957031 45.382812 75.886719 45.742188 75.746094 46.085938 C 75.601562 46.429688 75.398438 46.734375 75.136719 46.996094 C 74.871094 47.261719 74.566406 47.464844 74.222656 47.605469 C 73.878906 47.75 73.519531 47.820312 73.144531 47.820312 Z M 75.957031 59.058594 C 75.957031 58.6875 75.886719 58.328125 75.746094 57.984375 C 75.601562 57.640625 75.398438 57.335938 75.136719 57.074219 C 74.871094 56.808594 74.566406 56.605469 74.222656 56.464844 C 73.878906 56.320312 73.519531 56.25 73.144531 56.25 L 39.394531 56.25 C 39.023438 56.25 38.664062 56.320312 38.320312 56.464844 C 37.976562 56.605469 37.671875 56.808594 37.40625 57.074219 C 37.144531 57.335938 36.941406 57.640625 36.796875 57.984375 C 36.65625 58.328125 36.582031 58.6875 36.582031 59.058594 C 36.582031 59.433594 36.65625 59.792969 36.796875 60.136719 C 36.941406 60.480469 37.144531 60.785156 37.40625 61.046875 C 37.671875 61.3125 37.976562 61.515625 38.320312 61.65625 C 38.664062 61.800781 39.023438 61.871094 39.394531 61.871094 L 73.144531 61.871094 C 73.519531 61.871094 73.878906 61.800781 74.222656 61.65625 C 74.566406 61.515625 74.871094 61.3125 75.136719 61.046875 C 75.398438 60.785156 75.601562 60.480469 75.746094 60.136719 C 75.886719 59.792969 75.957031 59.433594 75.957031 59.058594 Z M 75.957031 73.109375 C 75.957031 72.738281 75.886719 72.378906 75.746094 72.035156 C 75.601562 71.691406 75.398438 71.386719 75.136719 71.125 C 74.871094 70.859375 74.566406 70.65625 74.222656 70.515625 C 73.878906 70.371094 73.519531 70.300781 73.144531 70.300781 L 39.394531 70.300781 C 39.023438 70.300781 38.664062 70.371094 38.320312 70.515625 C 37.976562 70.65625 37.671875 70.859375 37.40625 71.125 C 37.144531 71.386719 36.941406 71.691406 36.796875 72.035156 C 36.65625 72.378906 36.582031 72.738281 36.582031 73.109375 C 36.582031 73.484375 36.65625 73.84375 36.796875 74.1875 C 36.941406 74.53125 37.144531 74.835938 37.40625 75.097656 C 37.671875 75.363281 37.976562 75.566406 38.320312 75.707031 C 38.664062 75.851562 39.023438 75.921875 39.394531 75.921875 L 73.144531 75.921875 C 73.519531 75.921875 73.878906 75.851562 74.222656 75.707031 C 74.566406 75.566406 74.871094 75.363281 75.136719 75.097656 C 75.398438 74.835938 75.601562 74.53125 75.746094 74.1875 C 75.886719 73.84375 75.957031 73.484375 75.957031 73.109375 Z M 84.394531 36.097656 L 84.394531 87.160156 C 84.394531 87.714844 84.339844 88.261719 84.234375 88.804688 C 84.125 89.347656 83.964844 89.875 83.75 90.386719 C 83.539062 90.898438 83.277344 91.382812 82.972656 91.84375 C 82.664062 92.304688 82.3125 92.730469 81.921875 93.121094 C 81.53125 93.511719 81.105469 93.859375 80.644531 94.167969 C 80.183594 94.476562 79.699219 94.734375 79.1875 94.949219 C 78.675781 95.160156 78.148438 95.320312 77.605469 95.429688 C 77.0625 95.535156 76.511719 95.589844 75.957031 95.59375 L 36.582031 95.59375 C 36.03125 95.589844 35.480469 95.535156 34.9375 95.429688 C 34.394531 95.320312 33.867188 95.160156 33.355469 94.949219 C 32.84375 94.734375 32.359375 94.476562 31.898438 94.167969 C 31.4375 93.859375 31.011719 93.511719 30.621094 93.121094 C 30.226562 92.730469 29.878906 92.304688 29.570312 91.84375 C 29.261719 91.382812 29.003906 90.898438 28.789062 90.386719 C 28.578125 89.875 28.417969 89.347656 28.308594 88.804688 C 28.203125 88.261719 28.148438 87.714844 28.144531 87.160156 L 28.144531 25.339844 C 28.148438 24.785156 28.203125 24.238281 28.308594 23.695312 C 28.417969 23.152344 28.578125 22.625 28.789062 22.113281 C 29.003906 21.601562 29.261719 21.117188 29.570312 20.65625 C 29.878906 20.195312 30.226562 19.769531 30.621094 19.378906 C 31.011719 18.988281 31.4375 18.640625 31.898438 18.332031 C 32.359375 18.023438 32.84375 17.765625 33.355469 17.550781 C 33.867188 17.339844 34.394531 17.179688 34.9375 17.070312 C 35.480469 16.964844 36.03125 16.910156 36.582031 16.90625 L 65.191406 16.90625 C 66.308594 16.90625 67.386719 17.117188 68.421875 17.546875 C 69.457031 17.972656 70.367188 18.585938 71.15625 19.378906 L 81.925781 30.136719 C 82.71875 30.925781 83.328125 31.835938 83.757812 32.867188 C 84.1875 33.902344 84.398438 34.980469 84.394531 36.097656 Z M 67.519531 23.691406 L 67.519531 30.957031 C 67.523438 31.332031 67.59375 31.6875 67.734375 32.035156 C 67.878906 32.378906 68.082031 32.679688 68.347656 32.945312 C 68.609375 33.207031 68.914062 33.410156 69.257812 33.554688 C 69.601562 33.695312 69.960938 33.769531 70.332031 33.769531 L 77.605469 33.769531 Z M 78.769531 87.160156 L 78.769531 39.390625 L 70.332031 39.390625 C 69.78125 39.386719 69.230469 39.332031 68.6875 39.226562 C 68.144531 39.117188 67.617188 38.957031 67.105469 38.746094 C 66.59375 38.53125 66.109375 38.273438 65.648438 37.964844 C 65.1875 37.65625 64.761719 37.308594 64.371094 36.917969 C 63.976562 36.527344 63.628906 36.101562 63.320312 35.640625 C 63.011719 35.179688 62.753906 34.695312 62.539062 34.183594 C 62.328125 33.671875 62.167969 33.144531 62.058594 32.601562 C 61.953125 32.058594 61.898438 31.511719 61.894531 30.957031 L 61.894531 22.527344 L 36.582031 22.527344 C 36.210938 22.527344 35.851562 22.601562 35.507812 22.742188 C 35.164062 22.886719 34.859375 23.089844 34.597656 23.351562 C 34.332031 23.617188 34.128906 23.917969 33.984375 24.261719 C 33.84375 24.609375 33.773438 24.964844 33.769531 25.339844 L 33.769531 87.160156 C 33.773438 87.535156 33.84375 87.890625 33.984375 88.238281 C 34.128906 88.582031 34.332031 88.882812 34.597656 89.148438 C 34.859375 89.410156 35.164062 89.613281 35.507812 89.757812 C 35.851562 89.898438 36.210938 89.972656 36.582031 89.972656 L 75.957031 89.972656 C 76.332031 89.972656 76.691406 89.898438 77.035156 89.757812 C 77.378906 89.613281 77.683594 89.410156 77.945312 89.148438 C 78.210938 88.882812 78.414062 88.582031 78.554688 88.238281 C 78.699219 87.890625 78.769531 87.535156 78.769531 87.160156 Z M 78.769531 87.160156 " fill-opacity="1" fill-rule="nonzero"/>
    </g>
</svg>