<svg xmlns="http://www.w3.org/2000/svg"
    xmlns:xlink="http://www.w3.org/1999/xlink" version="1.1" x="0px" y="0px" viewBox="0 0 100 125" enable-background="new 0 0 100 100" xml:space="preserve">
    <g>
        <path d="M90.25,53.75c-2-5.75-2-14-7.25-16.5s-0.75-8.75-9.75-10.5s-9.379-5.615-15.5-6.5C52,19.418,59.545,17.181,41,14.75   C22.583,12.335,21.516,31.185,19.5,31.5C15.5,32.125,8,39.25,7.75,41S4.5,42.5,5.5,46.5S4,54.25,8,55s3.297,2.25,4.398,3   S24,66.5,28.5,67.25s9.5,9,15,9.25s7.5,3,14,1.25s17.5,0,23-5.25S92.25,59.5,90.25,53.75z M17.229,43.833   c-0.301,0.395-2.065-0.171-1.417-0.583C16.729,42.666,17.53,43.438,17.229,43.833z M21.272,41.181   c1.583-0.917,1.615,0.489,1.417,0.833C22.443,42.442,20.619,41.559,21.272,41.181z M21.625,46.594   c-1.125,0.281-1.843-1.19-1.375-2.094c0.875-1.688,2.973-1.007,3.438-0.559C24.219,44.453,22.75,46.312,21.625,46.594z    M39.199,27.949c1.198-0.5,1.183,0.394,0.968,0.75C40.006,28.964,38.227,28.354,39.199,27.949z M33.831,29.25   c1.331-0.375,1.669-0.875,2.123,0S32.659,29.58,33.831,29.25z M31.75,24.625c0.312-1.689,1.875-2.25,3.375-2.125   s0.625,3.75,0,4.125S31.438,26.314,31.75,24.625z M40.833,60.781c-0.667,1.781-4.5,1.552-6.167,0.719s-2.503-4.595,0-4.538   C40.333,57.091,41.5,59,40.833,60.781z M45.5,55.354c-0.219,0.662-1.625,1.49-2.667,0c0,0-0.833-1.687,0.749-2.303   S45.663,54.859,45.5,55.354z M51,49.206c-0.625,0.581-1.992-0.957-1-1.081C51,48,51.625,48.625,51,49.206z M48.625,46.433   c-3.25,0.683-6.745-0.836-4.125-3.933c1.375-1.625,6.5-1,8.5,0S51.875,45.75,48.625,46.433z M70.395,33.219   c3.61,0.203,1.657,0.719,0.907,0.781S68.562,33.116,70.395,33.219z M65.5,36c0.469-0.266,2.75-0.5,3.878,0s-1.003,1.5-2.771,1.625   S65.031,36.266,65.5,36z M65.188,49.416c2.354-1,4.522,1.856,4.146,2.5c-1.167,2-3.583,0.833-4.833,0.416   S63.928,49.952,65.188,49.416z M61.75,55.354c4.125,1.479,1.375,3.396,0,3.271S60.151,54.78,61.75,55.354z M62.281,71   c-1.136,1.25-2.328-2.058-1.648-2.333C62.872,67.76,63.417,69.75,62.281,71z M66,69.25c-0.584,0-0.547-0.504,0-0.613   C66.25,68.587,66.584,69.25,66,69.25z M67.5,66.75c-1.433-0.444-3.5,1-5.5,0s-4.043-3.453-1.65-5.001   c2.835-1.834,1.65-0.499,7.15-0.499S69.378,67.332,67.5,66.75z M71.75,55c-0.334,0.251-2.692,0.651-1.806,0   C71.305,54.001,72.084,54.749,71.75,55z M72.047,37.753c-0.049-1.376,1.133-0.874,2.383-0.93s0.088,1.566-0.396,1.55   S72.087,38.895,72.047,37.753z M73.451,65c-0.299,0-1.021-1.445,0-1.054C74.777,64.455,73.75,65,73.451,65z M74.334,60.027   c-0.448-0.296-1.185-0.69-0.75-1.445c0.291-0.506,2.083-0.75,3,0S75.176,60.584,74.334,60.027z M83.25,54.495   c-1.375,2.505-6.346,2.503-6.86,1.504S73.715,54.625,74.92,52C75.767,50.156,84.625,51.99,83.25,54.495z"/>
    </g>
</svg>