<svg xmlns="http://www.w3.org/2000/svg" data-name="Layer 1" viewBox="0 0 48 60" x="0px" y="0px"><path d="m41.848,14.09c-.08-.36-.352-.646-.707-.746-4.672-1.308-9.657-.2-13.335,2.961l-2.815,2.419-4.904-4.206c.228-2.267-.661-4.529-2.395-6.016-1.419-1.221-3.232-1.812-5.094-1.674-1.864.142-3.561,1.001-4.776,2.42-1.219,1.416-1.812,3.224-1.671,5.089.142,1.864,1,3.562,2.415,4.78,1.731,1.495,4.101,2.033,6.308,1.468l3.975,3.417-3.975,3.416c-2.201-.565-4.571-.026-6.307,1.465-2.928,2.515-3.263,6.943-.748,9.872,1.384,1.608,3.344,2.434,5.314,2.434,1.616,0,3.239-.555,4.558-1.688,1.734-1.491,2.624-3.753,2.396-6.016l4.899-4.21,2.822,2.424c2.66,2.285,6.001,3.496,9.412,3.495,1.308,0,2.626-.178,3.92-.541.354-.1.626-.387.706-.747.079-.359-.045-.734-.325-.975l-10.396-8.931,10.397-8.935c.28-.241.405-.615.325-.976Zm-26.085,4.622c-.271-.234-.646-.302-.981-.187-1.687.588-3.566.235-4.909-.923-1.012-.871-1.625-2.085-1.727-3.417-.101-1.332.322-2.622,1.194-3.635.868-1.014,2.08-1.628,3.41-1.729,1.337-.099,2.625.324,3.639,1.196,1.345,1.153,1.976,2.961,1.647,4.718-.065.351.062.71.332.942l5.088,4.364-3.074,2.642-4.62-3.972Zm22.898,14.399c-3.428.397-6.885-.64-9.55-2.93l-2.59-2.225,3.069-2.638,9.07,7.792Zm-20.291-.786c-.271.232-.397.592-.332.942.327,1.753-.305,3.56-1.649,4.716-2.092,1.798-5.255,1.558-7.052-.532-1.797-2.092-1.558-5.255.534-7.051.915-.787,2.078-1.203,3.259-1.203.555,0,1.112.092,1.65.28.34.115.711.047.981-.186l13.347-11.47c2.666-2.29,6.125-3.332,9.552-2.934l-20.29,17.437Z"/><path d="m13.394,30.702c-.94-.072-1.837.226-2.545.835-.71.609-1.14,1.458-1.21,2.391s.227,1.837.836,2.545c.691.805,1.671,1.217,2.657,1.217.808,0,1.619-.276,2.278-.843h0c1.463-1.259,1.63-3.473.372-4.937-.609-.708-1.458-1.138-2.39-1.208Zm.713,4.628c-.625.537-1.574.467-2.115-.161-.261-.304-.388-.69-.358-1.09.03-.4.215-.764.52-1.025.282-.242.63-.361.976-.361.422,0,.843.177,1.139.521.539.628.467,1.576-.16,2.116Z"/><path d="m15.41,11.153c-1.464-1.257-3.678-1.089-4.936.374-.609.709-.906,1.613-.836,2.545.07.933.5,1.781,1.209,2.39.641.551,1.44.847,2.276.847.089,0,.179-.003.269-.01.933-.07,1.781-.5,2.392-1.21,1.257-1.463,1.09-3.677-.373-4.935h0Zm-1.144,3.633c-.261.304-.625.488-1.024.519-.396.034-.786-.098-1.091-.359-.304-.261-.488-.624-.519-1.023-.029-.399.098-.787.359-1.092.296-.344.716-.521,1.138-.521.346,0,.694.118.977.36.627.54.699,1.488.16,2.116Z"/><circle cx="25" cy="24" r="1.5"/><text x="0" y="63" fill="#000000" font-size="5px" font-weight="bold" font-family="'Helvetica Neue', Helvetica, Arial-Unicode, Arial, Sans-serif">Created by kumakamu</text><text x="0" y="68" fill="#000000" font-size="5px" font-weight="bold" font-family="'Helvetica Neue', Helvetica, Arial-Unicode, Arial, Sans-serif">from the Noun Project</text></svg>